<svg width="64" height="64" viewBox="0 0 64 64" fill="none" xmlns="http://www.w3.org/2000/svg">
<rect width="64" height="64" fill="#FFEDD5"/>
<path d="M12 49V47.3994L12.5828 47.346C14.649 47.0793 17.1921 43.878 19.0993 39.1296L29.3245 14H31.4437L44 39.1296C44.9536 40.9436 47.8146 47.7729 51.947 47.3994L52 49H34.7815V47.3994L35.3642 47.346C36.2119 47.2393 36.6358 46.5457 36.6358 45.372C36.6358 43.9314 36 41.8506 34.7815 39.2363L34.1457 37.9024H22.2252L21.7483 39.1829C21.0596 41.157 20.7417 42.811 20.7417 44.1448C20.7417 46.0122 21.4305 47.2393 22.755 47.346L23.4437 47.3994V47.7195C23.4967 47.8796 23.4967 48.093 23.4967 48.4131V49H12ZM23.0728 35.7683H33.1391L27.5232 24.2439L23.0728 35.7683Z" fill="#1C1917"/>
</svg>
